<?xml version="1.0" standalone="no"?>
<!DOCTYPE svg PUBLIC "-//W3C//DTD SVG 20010904//EN"
 "http://www.w3.org/TR/2001/REC-SVG-20010904/DTD/svg10.dtd">
<svg version="1.0" xmlns="http://www.w3.org/2000/svg"
 width="700.000000pt" height="700.000000pt" viewBox="0 0 700.000000 700.000000"
 preserveAspectRatio="xMidYMid meet">
<metadata>
Created by potrace 1.11, written by Peter Selinger 2001-2013
</metadata>
<g transform="translate(0.000000,700.000000) scale(0.100000,-0.100000)"
fill="#000000" stroke="none">
<path d="M3704 6868 c-89 -17 -220 -51 -231 -61 -7 -5 -13 -7 -13 -4 0 3 -15
1 -32 -4 -99 -30 -277 -32 -433 -5 -143 25 -176 19 -325 -55 -138 -68 -202
-82 -276 -63 -107 28 -148 10 -291 -131 -143 -142 -199 -178 -321 -210 -166
-44 -385 -164 -612 -336 -47 -36 -119 -87 -160 -114 -177 -117 -285 -217 -369
-340 -62 -90 -87 -140 -150 -299 -28 -71 -62 -143 -75 -160 -31 -42 -47 -73
-52 -104 -7 -36 -78 -390 -89 -443 -3 -15 -17 -41 -30 -59 -21 -28 -48 -102
-60 -160 -2 -8 -10 -45 -19 -82 -27 -115 -37 -199 -37 -303 0 -89 3 -127 17
-198 15 -81 78 -221 121 -269 9 -10 13 -26 10 -40 -4 -13 -8 -66 -11 -118 -5
-87 -5 -92 8 -60 50 129 173 330 330 535 87 113 94 126 115 210 78 300 235
688 371 910 22 37 40 69 40 71 0 2 28 43 61 91 142 204 287 360 442 475 107
79 131 90 81 37 -23 -24 -54 -58 -70 -75 -50 -52 -129 -145 -138 -163 -5 -9
-12 -18 -16 -21 -13 -10 -137 -195 -180 -270 -61 -105 -141 -268 -184 -377
-34 -87 -96 -276 -96 -297 0 -6 37 46 83 115 176 267 380 486 593 637 69 49
90 72 151 162 308 454 704 791 1077 915 96 33 126 40 204 49 43 6 41 -7 -5
-23 -138 -49 -337 -211 -466 -378 -44 -58 -117 -168 -117 -177 0 -2 42 15 93
38 222 104 419 166 530 167 32 1 61 -1 64 -4 3 -4 33 9 68 27 183 99 498 219
660 251 40 8 170 32 220 40 61 10 317 14 340 4 19 -7 19 -8 -1 -8 -27 -1 -175
-50 -191 -63 -7 -6 -13 -8 -13 -4 0 9 -329 -161 -440 -227 -52 -31 -93 -57
-90 -57 3 0 60 -2 127 -4 67 -2 130 -7 140 -9 10 -3 41 -8 68 -12 186 -21 445
-121 610 -236 95 -65 125 -97 173 -178 27 -44 69 -93 123 -142 45 -41 92 -83
103 -94 12 -11 59 -54 105 -95 47 -41 92 -82 101 -90 9 -8 51 -46 94 -85 43
-38 93 -83 110 -98 45 -42 87 -56 176 -61 89 -4 156 7 182 31 16 15 17 18 3
39 -19 30 -21 26 19 48 30 16 66 69 55 81 -3 2 -22 0 -44 -5 -65 -13 -185 3
-185 25 0 4 14 18 30 32 17 13 27 29 24 34 -3 5 -8 7 -12 5 -4 -2 -31 -7 -59
-11 -58 -7 -69 4 -29 30 48 31 39 42 -32 41 -37 0 -80 3 -96 8 l-29 7 22 23
c40 42 29 52 -51 48 l-73 -4 23 21 c12 12 22 29 22 39 0 14 -9 17 -50 17 -52
0 -86 19 -62 34 11 6 8 14 -11 32 -13 13 -33 29 -43 35 -11 6 -26 24 -34 40
-8 16 -30 44 -47 63 -38 38 -40 47 -14 56 52 16 291 -75 291 -111 0 -9 -9 -18
-20 -21 -12 -3 -19 -11 -17 -17 4 -12 53 -13 104 -1 28 6 34 4 42 -16 28 -74
21 -69 69 -52 24 8 46 12 50 9 3 -3 5 -24 4 -47 -2 -37 0 -40 21 -33 12 3 29
13 38 20 13 12 18 12 27 2 10 -12 19 -49 21 -86 1 -9 10 -8 39 4 71 31 72 31
72 -15 0 -43 9 -51 30 -26 7 8 16 15 21 15 19 0 7 -28 -26 -60 -31 -30 -33
-35 -18 -41 27 -9 108 -3 141 10 16 7 35 23 42 36 10 19 18 22 45 18 25 -4 38
0 55 17 20 20 22 30 18 95 -6 86 -29 133 -78 157 -94 47 -171 95 -175 109 -3
9 -48 65 -99 124 -93 107 -103 125 -120 220 -17 91 -5 79 -215 205 l-33 21 48
32 c131 86 248 222 295 339 l20 50 -33 -20 c-128 -80 -302 -161 -316 -147 -3
2 17 28 42 57 49 56 92 133 100 181 5 31 -3 64 -13 50 -23 -35 -166 -108 -284
-147 -220 -72 -380 -86 -537 -47 -52 13 -104 25 -115 27 -11 1 -31 5 -45 8
-161 28 -176 34 -277 109 -173 130 -327 230 -432 282 -104 51 -215 71 -307 53z"/>
<path d="M2970 5318 c-97 -45 -249 -123 -325 -166 -140 -80 -386 -244 -470
-313 -170 -141 -226 -191 -320 -284 -459 -457 -720 -980 -782 -1565 -17 -160
-8 -498 17 -629 5 -26 11 -66 15 -91 11 -75 62 -270 100 -379 155 -445 436
-854 799 -1164 82 -71 253 -197 301 -223 11 -6 52 -31 90 -54 191 -118 558
-258 773 -294 76 -14 164 -26 222 -33 84 -10 408 -9 485 0 33 4 78 10 100 13
37 5 186 34 244 48 54 12 207 60 236 72 29 13 27 13 -40 14 -354 5 -760 104
-1114 272 -332 158 -575 360 -870 724 -42 53 -163 238 -190 294 -58 117 -264
678 -286 780 -2 8 -12 53 -23 100 -11 47 -23 101 -26 120 -3 19 -8 45 -10 57
-35 169 -26 523 19 783 47 272 97 438 221 737 123 298 206 454 301 566 21 24
57 66 79 93 75 88 186 213 242 272 141 149 228 237 233 235 3 -1 10 7 17 18 7
10 11 19 10 19 -2 -1 -23 -10 -48 -22z"/>
<path d="M2232 3577 c-72 -388 -88 -823 -42 -1147 21 -147 65 -354 90 -415 4
-11 22 -60 40 -110 67 -183 147 -330 259 -475 296 -383 726 -606 1326 -689
226 -32 699 -35 925 -6 48 6 125 15 175 20 47 5 65 7 142 20 23 4 45 -1 75
-18 83 -45 179 -68 300 -71 103 -3 119 -6 178 -34 91 -44 181 -64 281 -65 94
0 152 12 244 51 54 23 178 106 130 87 -49 -20 -226 -10 -225 13 0 4 51 27 112
51 284 110 489 291 524 460 6 31 10 58 8 59 -1 2 -19 -14 -38 -36 -34 -38
-166 -135 -201 -148 -9 -4 -2 8 15 27 47 51 81 114 81 151 0 18 -1 56 -2 83
-3 62 19 105 100 199 69 81 125 189 145 278 17 76 26 187 17 193 -4 2 -8 -2
-8 -11 0 -22 -71 -155 -104 -194 -39 -46 -37 -28 12 82 86 195 94 262 36 325
-31 35 -34 138 -7 265 12 56 27 109 32 116 6 6 8 12 4 12 -3 0 3 24 14 53 l19
52 -102 -105 c-78 -81 -111 -124 -140 -183 -42 -83 -106 -171 -187 -257 -29
-30 -48 -48 -43 -40 12 17 10 32 -6 73 -12 30 -31 36 -31 10 0 -34 -60 -121
-112 -167 -67 -58 -152 -109 -251 -152 l-77 -33 16 31 c9 18 19 62 21 98 l5
65 -32 -47 c-54 -81 -168 -196 -228 -229 -31 -18 -85 -61 -120 -96 l-62 -63
-31 30 c-30 29 -51 39 -47 23 7 -25 -18 -127 -43 -180 -49 -103 -184 -225
-334 -301 -52 -26 -190 -40 -417 -44 l-118 -2 24 -30 c57 -75 197 -166 280
-181 40 -8 49 -24 14 -26 -96 -6 -132 -4 -213 15 -74 17 -192 75 -300 149 -41
27 -72 41 -100 43 -199 12 -412 82 -600 197 -44 27 -84 51 -88 54 -16 10 1
-55 28 -108 55 -110 115 -176 238 -261 39 -26 68 -48 65 -48 -4 0 -42 15 -86
34 -242 101 -453 312 -581 577 -22 47 -41 90 -41 95 0 5 -28 28 -63 51 -35 23
-97 77 -138 120 -86 90 -249 290 -249 306 0 6 -3 8 -6 5 -6 -7 21 -102 68
-243 36 -110 121 -291 151 -324 20 -22 20 -23 2 -13 -24 12 -166 159 -216 222
-157 200 -301 517 -334 735 -14 96 -26 175 -36 245 -5 41 -12 86 -14 100 -8
45 -15 94 -20 135 -12 95 -16 121 -20 145 -2 14 -7 50 -10 80 -3 30 -7 71 -10
90 -3 19 -7 60 -10 90 -20 211 -25 253 -28 256 -1 1 -12 -52 -25 -119z"/>
</g>
</svg>
